<svg xmlns="http://www.w3.org/2000/svg" xmlns:xlink="http://www.w3.org/1999/xlink" contentStyleType="text/css" data-diagram-type="DESCRIPTION" height="1287px" preserveAspectRatio="none" style="width:630px;height:1287px;background:#FFFFFF;" version="1.1" viewBox="0 0 630 1287" width="630px" zoomAndPan="magnify"><defs/><g><!--cluster System--><g class="cluster" data-entity="System" data-source-line="11" data-uid="ent0005" id="cluster_System"><rect fill="none" height="1274" rx="2.5" ry="2.5" style="stroke:#181818;stroke-width:1;" width="327.89" x="296.89" y="7"/><text fill="#000000" font-family="sans-serif" font-size="14" font-weight="bold" lengthAdjust="spacing" textLength="264.4824" x="328.5938" y="21.9951">&#1057;&#1080;&#1089;&#1090;&#1077;&#1084;&#1072; &#1091;&#1087;&#1088;&#1072;&#1074;&#1083;&#1077;&#1085;&#1080;&#1103; &#1076;&#1077;&#1092;&#1077;&#1082;&#1090;&#1072;&#1084;&#1080;</text></g><!--cluster ??????????????--><g class="cluster" data-entity=".............." data-source-line="12" data-uid="ent0006" id="cluster_.............."><rect fill="none" height="83" rx="2.5" ry="2.5" style="stroke:#181818;stroke-width:1;" width="164.11" x="378.78" y="738"/><text fill="#000000" font-family="sans-serif" font-size="14" font-weight="bold" lengthAdjust="spacing" textLength="136.9922" x="392.3389" y="752.9951">&#1040;&#1091;&#1090;&#1077;&#1085;&#1090;&#1080;&#1092;&#1080;&#1082;&#1072;&#1094;&#1080;&#1103;</text></g><!--cluster ???????--><g class="cluster" data-entity="......." data-source-line="16" data-uid="ent0008" id="cluster_......."><rect fill="none" height="185" rx="2.5" ry="2.5" style="stroke:#181818;stroke-width:1;" width="263.25" x="329.21" y="845"/><text fill="#000000" font-family="sans-serif" font-size="14" font-weight="bold" lengthAdjust="spacing" textLength="71.1279" x="425.271" y="859.9951">&#1055;&#1088;&#1086;&#1077;&#1082;&#1090;&#1099;</text></g><!--cluster ???????--><g class="cluster" data-entity="......." data-source-line="21" data-uid="ent0011" id="cluster_......."><rect fill="none" height="664" rx="2.5" ry="2.5" style="stroke:#181818;stroke-width:1;" width="269.09" x="326.29" y="50"/><text fill="#000000" font-family="sans-serif" font-size="14" font-weight="bold" lengthAdjust="spacing" textLength="75.626" x="423.022" y="64.9951">&#1044;&#1077;&#1092;&#1077;&#1082;&#1090;&#1099;</text></g><!--cluster ?????????? ? ?????????--><g class="cluster" data-entity=".......... . ........." data-source-line="30" data-uid="ent0018" id="cluster_.......... . ........."><rect fill="none" height="203" rx="2.5" ry="2.5" style="stroke:#181818;stroke-width:1;" width="279.89" x="320.89" y="1054"/><text fill="#000000" font-family="sans-serif" font-size="14" font-weight="bold" lengthAdjust="spacing" textLength="196.8545" x="362.4078" y="1068.9951">&#1054;&#1090;&#1095;&#1105;&#1090;&#1085;&#1086;&#1089;&#1090;&#1100; &#1080; &#1072;&#1085;&#1072;&#1083;&#1080;&#1090;&#1080;&#1082;&#1072;</text></g><!--entity UC_Auth--><g class="entity" data-entity="UC_Auth" data-source-line="13" data-uid="ent0007" id="entity_UC_Auth"><ellipse cx="460.8251" cy="789.001" fill="#F1F1F1" rx="66.0551" ry="15.611" style="stroke:#181818;stroke-width:0.5;"/><text fill="#000000" font-family="sans-serif" font-size="14" lengthAdjust="spacing" textLength="96.25" x="412.7001" y="793.6495">&#1042;&#1086;&#1081;&#1090;&#1080;/&#1042;&#1099;&#1081;&#1090;&#1080;</text></g><!--entity UC_Projects--><g class="entity" data-entity="UC_Projects" data-source-line="17" data-uid="ent0009" id="entity_UC_Projects"><ellipse cx="460.8336" cy="988.0047" fill="#F1F1F1" rx="115.6236" ry="25.5247" style="stroke:#181818;stroke-width:0.5;"/><text fill="#000000" font-family="sans-serif" font-size="14" lengthAdjust="spacing" textLength="177.3242" x="372.1715" y="986.9119">&#1057;&#1086;&#1079;&#1076;&#1072;&#1090;&#1100;/&#1088;&#1077;&#1076;&#1072;&#1082;&#1090;&#1080;&#1088;&#1086;&#1074;&#1072;&#1090;&#1100;</text><text fill="#000000" font-family="sans-serif" font-size="14" lengthAdjust="spacing" textLength="62.8838" x="398.0797" y="1003.2088">&#1087;&#1088;&#1086;&#1077;&#1082;&#1090;&#1099;</text><text fill="#000000" font-family="sans-serif" font-size="14" lengthAdjust="spacing" textLength="4.4502" x="460.9635" y="1003.2088">&#160;</text><text fill="#000000" font-family="sans-serif" font-size="14" lengthAdjust="spacing" textLength="9.0986" x="465.4137" y="1003.2088">&#1080;</text><text fill="#000000" font-family="sans-serif" font-size="14" lengthAdjust="spacing" textLength="4.4502" x="474.5123" y="1003.2088">&#160;</text><text fill="#000000" font-family="sans-serif" font-size="14" lengthAdjust="spacing" textLength="44.625" x="478.9625" y="1003.2088">&#1101;&#1090;&#1072;&#1087;&#1099;</text></g><!--entity UC_Projects_View--><g class="entity" data-entity="UC_Projects_View" data-source-line="18" data-uid="ent0010" id="entity_UC_Projects_View"><ellipse cx="460.8345" cy="904.0015" fill="#F1F1F1" rx="97.8245" ry="23.6515" style="stroke:#181818;stroke-width:0.5;"/><text fill="#000000" font-family="sans-serif" font-size="14" lengthAdjust="spacing" textLength="71.8457" x="386.0049" y="904.1139">&#1055;&#1088;&#1086;&#1089;&#1084;&#1086;&#1090;&#1088;</text><text fill="#000000" font-family="sans-serif" font-size="14" lengthAdjust="spacing" textLength="4.4502" x="457.8506" y="904.1139">&#160;</text><text fill="#000000" font-family="sans-serif" font-size="14" lengthAdjust="spacing" textLength="73.3633" x="462.3008" y="904.1139">&#1087;&#1088;&#1086;&#1077;&#1082;&#1090;&#1086;&#1074;/</text><text fill="#000000" font-family="sans-serif" font-size="14" lengthAdjust="spacing" textLength="50.3877" x="435.6407" y="920.4108">&#1101;&#1090;&#1072;&#1087;&#1086;&#1074;</text></g><!--entity UC_Defect_CRUD--><g class="entity" data-entity="UC_Defect_CRUD" data-source-line="22" data-uid="ent0012" id="entity_UC_Defect_CRUD"><ellipse cx="460.8271" cy="232.9969" fill="#F1F1F1" rx="116.8871" ry="44.8669" style="stroke:#181818;stroke-width:0.5;"/><text fill="#000000" font-family="sans-serif" font-size="14" lengthAdjust="spacing" textLength="177.3242" x="372.165" y="219.5167">&#1057;&#1086;&#1079;&#1076;&#1072;&#1090;&#1100;/&#1088;&#1077;&#1076;&#1072;&#1082;&#1090;&#1080;&#1088;&#1086;&#1074;&#1072;&#1090;&#1100;</text><text fill="#000000" font-family="sans-serif" font-size="14" lengthAdjust="spacing" textLength="55.4873" x="433.0835" y="235.8136">&#1076;&#1077;&#1092;&#1077;&#1082;&#1090;</text><text fill="#000000" font-family="sans-serif" font-size="14" lengthAdjust="spacing" textLength="84.6426" x="379.0762" y="252.1104">(&#1079;&#1072;&#1075;&#1086;&#1083;&#1086;&#1074;&#1086;&#1082;,</text><text fill="#000000" font-family="sans-serif" font-size="14" lengthAdjust="spacing" textLength="4.4502" x="463.7187" y="252.1104">&#160;</text><text fill="#000000" font-family="sans-serif" font-size="14" lengthAdjust="spacing" textLength="74.4092" x="468.1689" y="252.1104">&#1086;&#1087;&#1080;&#1089;&#1072;&#1085;&#1080;&#1077;,</text><text fill="#000000" font-family="sans-serif" font-size="14" lengthAdjust="spacing" textLength="84.0752" x="418.7895" y="268.4073">&#1087;&#1088;&#1080;&#1086;&#1088;&#1080;&#1090;&#1077;&#1090;)</text></g><!--entity UC_Assign--><g class="entity" data-entity="UC_Assign" data-source-line="23" data-uid="ent0013" id="entity_UC_Assign"><ellipse cx="460.835" cy="587.003" fill="#F1F1F1" rx="109.815" ry="24.363" style="stroke:#181818;stroke-width:0.5;"/><text fill="#000000" font-family="sans-serif" font-size="14" lengthAdjust="spacing" textLength="78.0596" x="371.6533" y="588.0422">&#1053;&#1072;&#1079;&#1085;&#1072;&#1095;&#1080;&#1090;&#1100;</text><text fill="#000000" font-family="sans-serif" font-size="14" lengthAdjust="spacing" textLength="4.4502" x="449.7129" y="588.0422">&#160;</text><text fill="#000000" font-family="sans-serif" font-size="14" lengthAdjust="spacing" textLength="95.8535" x="454.1631" y="588.0422">&#1080;&#1089;&#1087;&#1086;&#1083;&#1085;&#1080;&#1090;&#1077;&#1083;&#1103;</text><text fill="#000000" font-family="sans-serif" font-size="14" lengthAdjust="spacing" textLength="9.0986" x="437.2578" y="604.3391">&#1080;</text><text fill="#000000" font-family="sans-serif" font-size="14" lengthAdjust="spacing" textLength="4.4502" x="446.3564" y="604.3391">&#160;</text><text fill="#000000" font-family="sans-serif" font-size="14" lengthAdjust="spacing" textLength="33.6055" x="450.8066" y="604.3391">&#1089;&#1088;&#1086;&#1082;</text></g><!--entity UC_Status--><g class="entity" data-entity="UC_Status" data-source-line="24" data-uid="ent0014" id="entity_UC_Status"><ellipse cx="460.8328" cy="377.0032" fill="#F1F1F1" rx="118.5428" ry="47.2532" style="stroke:#181818;stroke-width:0.5;"/><text fill="#000000" font-family="sans-serif" font-size="14" lengthAdjust="spacing" textLength="87.8281" x="376.2893" y="359.6362">&#1059;&#1087;&#1088;&#1072;&#1074;&#1083;&#1077;&#1085;&#1080;&#1077;</text><text fill="#000000" font-family="sans-serif" font-size="14" lengthAdjust="spacing" textLength="4.4502" x="464.1175" y="359.6362">&#160;</text><text fill="#000000" font-family="sans-serif" font-size="14" lengthAdjust="spacing" textLength="76.8086" x="468.5677" y="359.6362">&#1089;&#1090;&#1072;&#1090;&#1091;&#1089;&#1072;&#1084;&#1080;</text><text fill="#000000" font-family="sans-serif" font-size="14" lengthAdjust="spacing" textLength="44.3447" x="375.7322" y="375.9331">&#1053;&#1086;&#1074;&#1072;&#1103;</text><text fill="#000000" font-family="sans-serif" font-size="14" lengthAdjust="spacing" textLength="4.4502" x="420.0769" y="375.9331">&#160;</text><text fill="#000000" font-family="sans-serif" font-size="14" lengthAdjust="spacing" textLength="11.7305" x="424.5271" y="375.9331">&#8594;</text><text fill="#000000" font-family="sans-serif" font-size="14" lengthAdjust="spacing" textLength="4.4502" x="436.2576" y="375.9331">&#160;</text><text fill="#000000" font-family="sans-serif" font-size="14" lengthAdjust="spacing" textLength="9.6045" x="440.7078" y="375.9331">&#1042;</text><text fill="#000000" font-family="sans-serif" font-size="14" lengthAdjust="spacing" textLength="4.4502" x="450.3123" y="375.9331">&#160;</text><text fill="#000000" font-family="sans-serif" font-size="14" lengthAdjust="spacing" textLength="51.4336" x="454.7625" y="375.9331">&#1088;&#1072;&#1073;&#1086;&#1090;&#1077;</text><text fill="#000000" font-family="sans-serif" font-size="14" lengthAdjust="spacing" textLength="4.4502" x="506.1961" y="375.9331">&#160;</text><text fill="#000000" font-family="sans-serif" font-size="14" lengthAdjust="spacing" textLength="11.7305" x="510.6463" y="375.9331">&#8594;</text><text fill="#000000" font-family="sans-serif" font-size="14" lengthAdjust="spacing" textLength="4.4502" x="522.3767" y="375.9331">&#160;</text><text fill="#000000" font-family="sans-serif" font-size="14" lengthAdjust="spacing" textLength="19.1064" x="526.8269" y="375.9331">&#1053;&#1072;</text><text fill="#000000" font-family="sans-serif" font-size="14" lengthAdjust="spacing" textLength="69.4258" x="418.0296" y="392.23">&#1087;&#1088;&#1086;&#1074;&#1077;&#1088;&#1082;&#1077;</text><text fill="#000000" font-family="sans-serif" font-size="14" lengthAdjust="spacing" textLength="4.4502" x="487.4554" y="392.23">&#160;</text><text fill="#000000" font-family="sans-serif" font-size="14" lengthAdjust="spacing" textLength="11.7305" x="491.9056" y="392.23">&#8594;</text><text fill="#000000" font-family="sans-serif" font-size="14" lengthAdjust="spacing" textLength="141.251" x="390.2073" y="408.5269">&#1047;&#1072;&#1082;&#1088;&#1099;&#1090;&#1072;/&#1054;&#1090;&#1084;&#1077;&#1085;&#1077;&#1085;&#1072;</text></g><!--entity UC_Attach--><g class="entity" data-entity="UC_Attach" data-source-line="25" data-uid="ent0015" id="entity_UC_Attach"><ellipse cx="460.8277" cy="111.002" fill="#F1F1F1" rx="106.5377" ry="25.712" style="stroke:#181818;stroke-width:0.5;"/><text fill="#000000" font-family="sans-serif" font-size="14" lengthAdjust="spacing" textLength="70.4717" x="386.5347" y="107.9797">&#1044;&#1086;&#1073;&#1072;&#1074;&#1080;&#1090;&#1100;</text><text fill="#000000" font-family="sans-serif" font-size="14" lengthAdjust="spacing" textLength="4.4502" x="457.0064" y="107.9797">&#160;</text><text fill="#000000" font-family="sans-serif" font-size="14" lengthAdjust="spacing" textLength="73.6641" x="461.4566" y="107.9797">&#1074;&#1083;&#1086;&#1078;&#1077;&#1085;&#1080;&#1103;</text><text fill="#000000" font-family="sans-serif" font-size="14" lengthAdjust="spacing" textLength="47.168" x="391.0259" y="124.2766">(&#1092;&#1086;&#1090;&#1086;,</text><text fill="#000000" font-family="sans-serif" font-size="14" lengthAdjust="spacing" textLength="4.4502" x="438.1939" y="124.2766">&#160;</text><text fill="#000000" font-family="sans-serif" font-size="14" lengthAdjust="spacing" textLength="87.9854" x="442.6441" y="124.2766">&#1076;&#1086;&#1082;&#1091;&#1084;&#1077;&#1085;&#1090;&#1099;)</text></g><!--entity UC_Comments--><g class="entity" data-entity="UC_Comments" data-source-line="26" data-uid="ent0016" id="entity_UC_Comments"><ellipse cx="460.8287" cy="484.0024" fill="#F1F1F1" rx="100.9787" ry="24.9924" style="stroke:#181818;stroke-width:0.5;"/><text fill="#000000" font-family="sans-serif" font-size="14" lengthAdjust="spacing" textLength="101.2129" x="403.4479" y="478.973">&#1050;&#1086;&#1084;&#1084;&#1077;&#1085;&#1090;&#1072;&#1088;&#1080;&#1080;</text><text fill="#000000" font-family="sans-serif" font-size="14" lengthAdjust="spacing" textLength="4.4502" x="504.6607" y="478.973">&#160;</text><text fill="#000000" font-family="sans-serif" font-size="14" lengthAdjust="spacing" textLength="9.0986" x="509.1109" y="478.973">&#1080;</text><text fill="#000000" font-family="sans-serif" font-size="14" lengthAdjust="spacing" textLength="59.9238" x="388.2242" y="495.2698">&#1080;&#1089;&#1090;&#1086;&#1088;&#1080;&#1103;</text><text fill="#000000" font-family="sans-serif" font-size="14" lengthAdjust="spacing" textLength="4.4502" x="448.148" y="495.2698">&#160;</text><text fill="#000000" font-family="sans-serif" font-size="14" lengthAdjust="spacing" textLength="80.835" x="452.5982" y="495.2698">&#1080;&#1079;&#1084;&#1077;&#1085;&#1077;&#1085;&#1080;&#1081;</text></g><!--entity UC_Search--><g class="entity" data-entity="UC_Search" data-source-line="27" data-uid="ent0017" id="entity_UC_Search"><ellipse cx="460.8328" cy="672.0026" fill="#F1F1F1" rx="117.3128" ry="25.8626" style="stroke:#181818;stroke-width:0.5;"/><text fill="#000000" font-family="sans-serif" font-size="14" lengthAdjust="spacing" textLength="44.3447" x="384.6975" y="667.7456">&#1055;&#1086;&#1080;&#1089;&#1082;</text><text fill="#000000" font-family="sans-serif" font-size="14" lengthAdjust="spacing" textLength="4.4502" x="429.0422" y="667.7456">&#160;</text><text fill="#000000" font-family="sans-serif" font-size="14" lengthAdjust="spacing" textLength="4.7168" x="433.4924" y="667.7456">/</text><text fill="#000000" font-family="sans-serif" font-size="14" lengthAdjust="spacing" textLength="4.4502" x="438.2092" y="667.7456">&#160;</text><text fill="#000000" font-family="sans-serif" font-size="14" lengthAdjust="spacing" textLength="85.1416" x="442.6594" y="667.7456">&#1089;&#1086;&#1088;&#1090;&#1080;&#1088;&#1086;&#1074;&#1082;&#1072;</text><text fill="#000000" font-family="sans-serif" font-size="14" lengthAdjust="spacing" textLength="4.4502" x="527.801" y="667.7456">&#160;</text><text fill="#000000" font-family="sans-serif" font-size="14" lengthAdjust="spacing" textLength="4.7168" x="532.2512" y="667.7456">/</text><text fill="#000000" font-family="sans-serif" font-size="14" lengthAdjust="spacing" textLength="90.9385" x="376.9866" y="684.0425">&#1092;&#1080;&#1083;&#1100;&#1090;&#1088;&#1072;&#1094;&#1080;&#1103;</text><text fill="#000000" font-family="sans-serif" font-size="14" lengthAdjust="spacing" textLength="4.4502" x="467.9251" y="684.0425">&#160;</text><text fill="#000000" font-family="sans-serif" font-size="14" lengthAdjust="spacing" textLength="72.3037" x="472.3752" y="684.0425">&#1076;&#1077;&#1092;&#1077;&#1082;&#1090;&#1086;&#1074;</text></g><!--entity UC_Export--><g class="entity" data-entity="UC_Export" data-source-line="31" data-uid="ent0019" id="entity_UC_Export"><ellipse cx="460.8289" cy="1113.0036" fill="#F1F1F1" rx="99.8889" ry="24.1136" style="stroke:#181818;stroke-width:0.5;"/><text fill="#000000" font-family="sans-serif" font-size="14" lengthAdjust="spacing" textLength="60.6895" x="386.0438" y="1112.3767">&#1069;&#1082;&#1089;&#1087;&#1086;&#1088;&#1090;</text><text fill="#000000" font-family="sans-serif" font-size="14" lengthAdjust="spacing" textLength="4.4502" x="446.7332" y="1112.3767">&#160;</text><text fill="#000000" font-family="sans-serif" font-size="14" lengthAdjust="spacing" textLength="84.4307" x="451.1834" y="1112.3767">&#1086;&#1090;&#1095;&#1105;&#1090;&#1085;&#1086;&#1089;&#1090;&#1080;</text><text fill="#000000" font-family="sans-serif" font-size="14" lengthAdjust="spacing" textLength="81.2109" x="420.2234" y="1128.6736">(CSV/Excel)</text></g><!--entity UC_Analytics--><g class="entity" data-entity="UC_Analytics" data-source-line="32" data-uid="ent0020" id="entity_UC_Analytics"><ellipse cx="460.8338" cy="1206.9971" fill="#F1F1F1" rx="123.9438" ry="34.3971" style="stroke:#181818;stroke-width:0.5;"/><text fill="#000000" font-family="sans-serif" font-size="14" lengthAdjust="spacing" textLength="71.8457" x="366.6688" y="1200.0911">&#1055;&#1088;&#1086;&#1089;&#1084;&#1086;&#1090;&#1088;</text><text fill="#000000" font-family="sans-serif" font-size="14" lengthAdjust="spacing" textLength="4.4502" x="438.5145" y="1200.0911">&#160;</text><text fill="#000000" font-family="sans-serif" font-size="14" lengthAdjust="spacing" textLength="112.0342" x="442.9647" y="1200.0911">&#1072;&#1085;&#1072;&#1083;&#1080;&#1090;&#1080;&#1095;&#1077;&#1089;&#1082;&#1080;&#1093;</text><text fill="#000000" font-family="sans-serif" font-size="14" lengthAdjust="spacing" textLength="58.5771" x="392.6419" y="1216.3879">&#1086;&#1090;&#1095;&#1105;&#1090;&#1086;&#1074;</text><text fill="#000000" font-family="sans-serif" font-size="14" lengthAdjust="spacing" textLength="4.4502" x="451.2191" y="1216.3879">&#160;</text><text fill="#000000" font-family="sans-serif" font-size="14" lengthAdjust="spacing" textLength="73.3564" x="455.6693" y="1216.3879">(&#1075;&#1088;&#1072;&#1092;&#1080;&#1082;&#1080;,</text><text fill="#000000" font-family="sans-serif" font-size="14" lengthAdjust="spacing" textLength="89.1338" x="416.2669" y="1232.6848">&#1089;&#1090;&#1072;&#1090;&#1080;&#1089;&#1090;&#1080;&#1082;&#1072;)</text></g><!--entity Engineer--><g class="entity" data-entity="Engineer" data-source-line="7" data-uid="ent0002" id="entity_Engineer"><ellipse cx="93.9424" cy="288.35" fill="#F1F1F1" rx="8" ry="8" style="stroke:#181818;stroke-width:0.5;"/><path d="M93.9424,296.35 L93.9424,323.35 M80.9424,304.35 L106.9424,304.35 M93.9424,323.35 L80.9424,338.35 M93.9424,323.35 L106.9424,338.35" fill="none" style="stroke:#181818;stroke-width:0.5;"/><text fill="#000000" font-family="sans-serif" font-size="14" lengthAdjust="spacing" textLength="67.5049" x="60.19" y="352.8451">&#1048;&#1085;&#1078;&#1077;&#1085;&#1077;&#1088;</text></g><!--entity Manager--><g class="entity" data-entity="Manager" data-source-line="8" data-uid="ent0003" id="entity_Manager"><ellipse cx="93.9455" cy="663.35" fill="#F1F1F1" rx="8" ry="8" style="stroke:#181818;stroke-width:0.5;"/><path d="M93.9455,671.35 L93.9455,698.35 M80.9455,679.35 L106.9455,679.35 M93.9455,698.35 L80.9455,713.35 M93.9455,698.35 L106.9455,713.35" fill="none" style="stroke:#181818;stroke-width:0.5;"/><text fill="#000000" font-family="sans-serif" font-size="14" lengthAdjust="spacing" textLength="78.251" x="54.82" y="727.8451">&#1052;&#1077;&#1085;&#1077;&#1076;&#1078;&#1077;&#1088;</text></g><!--entity Executive--><g class="entity" data-entity="Executive" data-source-line="9" data-uid="ent0004" id="entity_Executive"><ellipse cx="93.9443" cy="949.35" fill="#F1F1F1" rx="8" ry="8" style="stroke:#181818;stroke-width:0.5;"/><path d="M93.9443,957.35 L93.9443,984.35 M80.9443,965.35 L106.9443,965.35 M93.9443,984.35 L80.9443,999.35 M93.9443,984.35 L106.9443,999.35" fill="none" style="stroke:#181818;stroke-width:0.5;"/><text fill="#000000" font-family="sans-serif" font-size="14" lengthAdjust="spacing" textLength="175.8887" x="6" y="1013.8451">&#1056;&#1091;&#1082;&#1086;&#1074;&#1086;&#1076;&#1080;&#1090;&#1077;&#1083;&#1100;/&#1047;&#1072;&#1082;&#1072;&#1079;&#1095;&#1080;&#1082;</text></g><!--link Engineer to UC_Auth--><g class="link" data-entity-1="Engineer" data-entity-2="UC_Auth" data-source-line="37" data-uid="lnk21" id="link_Engineer_UC_Auth"><path d="M128.05,335.42 C180.3,363.08 276.44,414.64 280.89,422 C297.69,449.77 270.77,687.07 288.89,714 C314.76,752.45 359.2274,769.9747 398.5974,779.1747" fill="none" id="Engineer-to-UC_Auth" style="stroke:#181818;stroke-width:1;"/><polygon fill="#181818" points="404.44,780.54,396.5863,774.597,399.5712,779.4022,394.7659,782.3871,404.44,780.54" style="stroke:#181818;stroke-width:1;"/></g><!--link Manager to UC_Auth--><g class="link" data-entity-1="Manager" data-entity-2="UC_Auth" data-source-line="38" data-uid="lnk22" id="link_Manager_UC_Auth"><path d="M133.24,700.82 C170.97,708.72 230.16,721.64 280.89,735 C329.37,747.77 378.7926,762.9803 414.8926,774.4703" fill="none" id="Manager-to-UC_Auth" style="stroke:#181818;stroke-width:1;"/><polygon fill="#181818" points="420.61,776.29,413.2471,769.7488,415.8455,774.7735,410.8208,777.372,420.61,776.29" style="stroke:#181818;stroke-width:1;"/></g><!--link Executive to UC_Auth--><g class="link" data-entity-1="Executive" data-entity-2="UC_Auth" data-source-line="39" data-uid="lnk23" id="link_Executive_UC_Auth"><path d="M182.3,980.27 C217.87,976.04 256.31,964.52 280.89,937 C302.63,912.65 269.57,890.31 288.89,864 C316.41,826.51 360.9601,808.8986 399.9201,799.4186" fill="none" id="Executive-to-UC_Auth" style="stroke:#181818;stroke-width:1;"/><polygon fill="#181818" points="405.75,798,396.0594,796.2413,400.8918,799.1821,397.9509,804.0144,405.75,798" style="stroke:#181818;stroke-width:1;"/></g><!--link Engineer to UC_Defect_CRUD--><g class="link" data-entity-1="Engineer" data-entity-2="UC_Defect_CRUD" data-source-line="41" data-uid="lnk24" id="link_Engineer_UC_Defect_CRUD"><path d="M127.88,290.54 C150.11,273.76 180.94,253.72 211.89,244 C254.13,230.74 296.4004,226.4203 339.0604,225.9203" fill="none" id="Engineer-to-UC_Defect_CRUD" style="stroke:#181818;stroke-width:1;"/><polygon fill="#181818" points="345.06,225.85,336.0137,221.9558,340.0603,225.9086,336.1075,229.9552,345.06,225.85" style="stroke:#181818;stroke-width:1;"/></g><!--link Engineer to UC_Attach--><g class="link" data-entity-1="Engineer" data-entity-2="UC_Attach" data-source-line="42" data-uid="lnk25" id="link_Engineer_UC_Attach"><path d="M127.85,284.09 C150.3,262.01 181.4,233.43 211.89,212 C266.17,173.84 331.2883,148.6361 383.3383,132.2061" fill="none" id="Engineer-to-UC_Attach" style="stroke:#181818;stroke-width:1;"/><polygon fill="#181818" points="389.06,130.4,379.2734,129.2947,384.2919,131.9051,381.6815,136.9236,389.06,130.4" style="stroke:#181818;stroke-width:1;"/></g><!--link Engineer to UC_Status--><g class="link" data-entity-1="Engineer" data-entity-2="UC_Status" data-source-line="43" data-uid="lnk26" id="link_Engineer_UC_Status"><path d="M127.93,296.43 C167.4,273.61 234.02,244.88 280.89,276 C288.52,281.07 282.57,288.37 288.89,295 C310.45,317.64 334.0751,332.3153 362.1551,344.9053" fill="none" id="Engineer-to-UC_Status" style="stroke:#181818;stroke-width:1;"/><polygon fill="#181818" points="367.63,347.36,361.0542,340.028,363.0676,345.3144,357.7812,347.3278,367.63,347.36" style="stroke:#181818;stroke-width:1;"/></g><!--link Engineer to UC_Comments--><g class="link" data-entity-1="Engineer" data-entity-2="UC_Comments" data-source-line="44" data-uid="lnk27" id="link_Engineer_UC_Comments"><path d="M127.89,310.77 C169.88,303.71 241.69,299.22 280.89,340 C296.65,356.39 274.17,424.67 288.89,442 C306.89,463.2 327.8293,473.3445 354.9093,479.2845" fill="none" id="Engineer-to-UC_Comments" style="stroke:#181818;stroke-width:1;"/><polygon fill="#181818" points="360.77,480.57,352.836,474.7346,355.8861,479.4987,351.122,482.5488,360.77,480.57" style="stroke:#181818;stroke-width:1;"/></g><!--link Engineer to UC_Search--><g class="link" data-entity-1="Engineer" data-entity-2="UC_Search" data-source-line="45" data-uid="lnk28" id="link_Engineer_UC_Search"><path d="M127.94,324.5 C176.22,334.76 262.41,356.09 280.89,381 C297.31,403.14 271.59,607.53 288.89,629 C303.58,647.23 319.0007,656.6839 341.4807,663.3939" fill="none" id="Engineer-to-UC_Search" style="stroke:#181818;stroke-width:1;"/><polygon fill="#181818" points="347.23,665.11,339.7501,658.7029,342.4389,663.6799,337.4619,666.3687,347.23,665.11" style="stroke:#181818;stroke-width:1;"/></g><!--link Engineer to UC_Projects_View--><g class="link" data-entity-1="Engineer" data-entity-2="UC_Projects_View" data-source-line="46" data-uid="lnk29" id="link_Engineer_UC_Projects_View"><path d="M128.11,344.3 C172.5,381.8 249.29,455.31 280.89,538 C292.12,567.38 271.82,794.58 288.89,821 C311.09,855.36 346.1976,874.0136 382.3676,886.0636" fill="none" id="Engineer-to-UC_Projects_View" style="stroke:#181818;stroke-width:1;"/><polygon fill="#181818" points="388.06,887.96,380.7857,881.3204,383.3163,886.3796,378.2571,888.9103,388.06,887.96" style="stroke:#181818;stroke-width:1;"/></g><!--link Manager to UC_Projects--><g class="link" data-entity-1="Manager" data-entity-2="UC_Projects" data-source-line="48" data-uid="lnk30" id="link_Manager_UC_Projects"><path d="M133.45,719.8 C156.15,735.49 185.51,755.58 211.89,773 C242.24,793.05 262.41,785.67 280.89,817 C295.36,841.55 270.67,923.08 288.89,945 C304.15,963.36 320.2065,972.8521 343.1865,979.5021" fill="none" id="Manager-to-UC_Projects" style="stroke:#181818;stroke-width:1;"/><polygon fill="#181818" points="348.95,981.17,341.4166,974.8259,344.1471,979.7801,339.1928,982.5106,348.95,981.17" style="stroke:#181818;stroke-width:1;"/></g><!--link Manager to UC_Projects_View--><g class="link" data-entity-1="Manager" data-entity-2="UC_Projects_View" data-source-line="49" data-uid="lnk31" id="link_Manager_UC_Projects_View"><path d="M133.29,705.35 C181.94,721.79 261.84,751.63 280.89,776 C293.4,792 276.64,804.8 288.89,821 C313.86,854.03 349.7594,872.6592 385.6494,885.0692" fill="none" id="Manager-to-UC_Projects_View" style="stroke:#181818;stroke-width:1;"/><polygon fill="#181818" points="391.32,887.03,384.1213,880.3085,386.5945,885.396,381.507,887.8692,391.32,887.03" style="stroke:#181818;stroke-width:1;"/></g><!--link Manager to UC_Defect_CRUD--><g class="link" data-entity-1="Manager" data-entity-2="UC_Defect_CRUD" data-source-line="50" data-uid="lnk32" id="link_Manager_UC_Defect_CRUD"><path d="M105.31,654.36 C127.27,579.17 185.16,411.87 288.89,312 C311.62,290.12 335.9875,275.8791 364.3975,263.6691" fill="none" id="Manager-to-UC_Defect_CRUD" style="stroke:#181818;stroke-width:1;"/><polygon fill="#181818" points="369.91,261.3,360.0619,261.1787,365.3163,263.2743,363.2207,268.5287,369.91,261.3" style="stroke:#181818;stroke-width:1;"/></g><!--link Manager to UC_Assign--><g class="link" data-entity-1="Manager" data-entity-2="UC_Assign" data-source-line="51" data-uid="lnk33" id="link_Manager_UC_Assign"><path d="M133.31,679.36 C172.24,665.75 234.36,644.67 288.89,629 C319.44,620.22 347.5458,613.0408 377.0758,605.9508" fill="none" id="Manager-to-UC_Assign" style="stroke:#181818;stroke-width:1;"/><polygon fill="#181818" points="382.91,604.55,373.2249,602.7617,378.0482,605.7173,375.0925,610.5406,382.91,604.55" style="stroke:#181818;stroke-width:1;"/></g><!--link Manager to UC_Status--><g class="link" data-entity-1="Manager" data-entity-2="UC_Status" data-source-line="52" data-uid="lnk34" id="link_Manager_UC_Status"><path d="M119.96,654.51 C141.78,622.79 175.57,577.83 211.89,545 C238.87,520.61 261.29,531.64 280.89,501 C295.15,478.71 272.43,462.72 288.89,442 C305.28,421.36 323.4216,409.454 348.0116,399.844" fill="none" id="Manager-to-UC_Status" style="stroke:#181818;stroke-width:1;"/><polygon fill="#181818" points="353.6,397.66,343.7614,397.2104,348.943,399.48,346.6734,404.6616,353.6,397.66" style="stroke:#181818;stroke-width:1;"/></g><!--link Manager to UC_Comments--><g class="link" data-entity-1="Manager" data-entity-2="UC_Comments" data-source-line="53" data-uid="lnk35" id="link_Manager_UC_Comments"><path d="M133.38,667.6 C186.22,632.55 275.46,572.89 280.89,566 C287.07,558.16 281.75,551.99 288.89,545 C312.76,521.63 340.4057,508.825 371.3557,499.885" fill="none" id="Manager-to-UC_Comments" style="stroke:#181818;stroke-width:1;"/><polygon fill="#181818" points="377.12,498.22,367.3635,496.8747,372.3164,499.6075,369.5835,504.5605,377.12,498.22" style="stroke:#181818;stroke-width:1;"/></g><!--link Manager to UC_Search--><g class="link" data-entity-1="Manager" data-entity-2="UC_Search" data-source-line="54" data-uid="lnk36" id="link_Manager_UC_Search"><path d="M133.3,690.79 C183.62,687.9 268.0999,683.0348 341.0699,678.8348" fill="none" id="Manager-to-UC_Search" style="stroke:#181818;stroke-width:1;"/><polygon fill="#181818" points="347.06,678.49,337.845,675.0138,342.0683,678.7773,338.3047,683.0006,347.06,678.49" style="stroke:#181818;stroke-width:1;"/></g><!--link Manager to UC_Export--><g class="link" data-entity-1="Manager" data-entity-2="UC_Export" data-source-line="55" data-uid="lnk37" id="link_Manager_UC_Export"><path d="M127.91,731.54 C150.27,756.52 181.23,788.95 211.89,814 C240.05,837.01 262.67,826.52 280.89,858 C300.06,891.11 267.84,998.05 288.89,1030 C311.13,1063.75 345.5391,1082.2693 381.3191,1094.4293" fill="none" id="Manager-to-UC_Export" style="stroke:#181818;stroke-width:1;"/><polygon fill="#181818" points="387,1096.36,379.7658,1089.6767,382.2659,1094.7511,377.1916,1097.2512,387,1096.36" style="stroke:#181818;stroke-width:1;"/></g><!--link Manager to UC_Analytics--><g class="link" data-entity-1="Manager" data-entity-2="UC_Analytics" data-source-line="56" data-uid="lnk38" id="link_Manager_UC_Analytics"><path d="M117.22,731.58 C156.84,802.08 239.32,957.48 280.89,1099 C287.97,1123.12 272.53,1135.91 288.89,1155 C304.23,1172.9 319.8661,1182.77 342.2361,1190.59" fill="none" id="Manager-to-UC_Analytics" style="stroke:#181818;stroke-width:1;"/><polygon fill="#181818" points="347.9,1192.57,340.7241,1185.8241,343.1801,1190.92,338.0842,1193.376,347.9,1192.57" style="stroke:#181818;stroke-width:1;"/></g><!--link Executive to UC_Projects_View--><g class="link" data-entity-1="Executive" data-entity-2="UC_Projects_View" data-source-line="58" data-uid="lnk39" id="link_Executive_UC_Projects_View"><path d="M182.11,1000.07 C216.18,1003.19 253.54,999.63 280.89,978 C292.73,968.64 278.2,955.66 288.89,945 C308.87,925.06 330.8685,915.4151 358.2985,909.6451" fill="none" id="Executive-to-UC_Projects_View" style="stroke:#181818;stroke-width:1;"/><polygon fill="#181818" points="364.17,908.41,354.5394,906.3483,359.2771,909.4392,356.1861,914.177,364.17,908.41" style="stroke:#181818;stroke-width:1;"/></g><!--link Executive to UC_Analytics--><g class="link" data-entity-1="Executive" data-entity-2="UC_Analytics" data-source-line="59" data-uid="lnk40" id="link_Executive_UC_Analytics"><path d="M127.61,1017.32 C163.43,1057.07 224.43,1118.42 288.89,1155 C311.55,1167.86 332.0138,1176.1203 356.9838,1183.7803" fill="none" id="Executive-to-UC_Analytics" style="stroke:#181818;stroke-width:1;"/><polygon fill="#181818" points="362.72,1185.54,355.2889,1179.0764,357.9399,1184.0736,352.9426,1186.7246,362.72,1185.54" style="stroke:#181818;stroke-width:1;"/></g><!--link Executive to UC_Search--><g class="link" data-entity-1="Executive" data-entity-2="UC_Search" data-source-line="60" data-uid="lnk41" id="link_Executive_UC_Search"><path d="M121.08,940.76 C155.23,892.97 218.99,810.92 288.89,757 C322.87,730.78 360.7044,711.7018 395.2444,696.9118" fill="none" id="Executive-to-UC_Search" style="stroke:#181818;stroke-width:1;"/><polygon fill="#181818" points="400.76,694.55,390.9121,694.4156,396.1637,696.5182,394.0611,701.7697,400.76,694.55" style="stroke:#181818;stroke-width:1;"/></g><!--link UC_Assign to UC_Defect_CRUD--><g class="link" data-entity-1="UC_Assign" data-entity-2="UC_Defect_CRUD" data-source-line="63" data-uid="lnk42" id="link_UC_Assign_UC_Defect_CRUD"><path d="M373.54,602.15 C329.22,604.46 278.38,597.82 247.63,563.5 C241.89,557.09 215.48,407.14 288.89,312 C307.75,287.55 330.4251,272.75 358.5451,260.84" fill="none" id="UC_Assign-to-UC_Defect_CRUD" style="stroke:#181818;stroke-width:1;stroke-dasharray:7,7;"/><polygon fill="#181818" points="364.07,258.5,354.2227,258.3268,359.4659,260.45,357.3427,265.6933,364.07,258.5" style="stroke:#181818;stroke-width:1;"/><text fill="#000000" font-family="sans-serif" font-size="13" lengthAdjust="spacing" textLength="67.958" x="212.89" y="559.5669">&#171;extends&#187;</text></g><!--link UC_Status to UC_Defect_CRUD--><g class="link" data-entity-1="UC_Status" data-entity-2="UC_Defect_CRUD" data-source-line="64" data-uid="lnk43" id="link_UC_Status_UC_Defect_CRUD"><path d="M460.83,329.45 C460.83,312.9 460.83,300.4 460.83,284.06" fill="none" id="UC_Status-to-UC_Defect_CRUD" style="stroke:#181818;stroke-width:1;stroke-dasharray:7,7;"/><polygon fill="#181818" points="460.83,278.06,456.83,287.06,460.83,283.06,464.83,287.06,460.83,278.06" style="stroke:#181818;stroke-width:1;"/><text fill="#000000" font-family="sans-serif" font-size="13" lengthAdjust="spacing" textLength="67.958" x="415.83" y="308.3769">&#171;extends&#187;</text></g><!--link UC_Attach to UC_Defect_CRUD--><g class="link" data-entity-1="UC_Attach" data-entity-2="UC_Defect_CRUD" data-source-line="65" data-uid="lnk44" id="link_UC_Attach_UC_Defect_CRUD"><path d="M460.83,137.13 C460.83,151.91 460.83,164.81 460.83,181.92" fill="none" id="UC_Attach-to-UC_Defect_CRUD" style="stroke:#181818;stroke-width:1;stroke-dasharray:7,7;"/><polygon fill="#181818" points="460.83,187.92,464.83,178.92,460.83,182.92,456.83,178.92,460.83,187.92" style="stroke:#181818;stroke-width:1;"/><text fill="#000000" font-family="sans-serif" font-size="13" lengthAdjust="spacing" textLength="67.958" x="415.83" y="166.9869">&#171;extends&#187;</text></g><!--link UC_Comments to UC_Defect_CRUD--><g class="link" data-entity-1="UC_Comments" data-entity-2="UC_Defect_CRUD" data-source-line="66" data-uid="lnk45" id="link_UC_Comments_UC_Defect_CRUD"><path d="M362.33,478.08 C335.62,472.01 308.66,461.12 288.89,442 C234.71,389.59 200.09,335.99 247.63,277.5 C270.94,248.82 301.6062,236.4385 337.9362,230.9985" fill="none" id="UC_Comments-to-UC_Defect_CRUD" style="stroke:#181818;stroke-width:1;stroke-dasharray:7,7;"/><polygon fill="#181818" points="343.87,230.11,334.3769,227.4869,338.9251,230.8504,335.5616,235.3987,343.87,230.11" style="stroke:#181818;stroke-width:1;"/><text fill="#000000" font-family="sans-serif" font-size="13" lengthAdjust="spacing" textLength="67.958" x="212.89" y="290.5669">&#171;extends&#187;</text></g><!--SRC=[fLLHQnj747w_Np7u9IuuKSXZ2ORW-35GAfAy6CnnNalNI2TpjwxbX88Sjqd12MvDeAKqQKAU2nSbIYwoRF-5tR_GNz9lTkzMkhsK1FgWapGp- -tCDz_CzSIs93cWDEvq9Mt5gOXaF4Y2x5wSx8HfsAUTCBeNTaHRxlS4iJjCEZsn491rmwt1NfnqQ3liPOkUlJJSkHjloIvTktfrmTuFXxT4bZ5gV5yOPn16Sf3IalfTdQdtQeBdH8-MACneFUd4YH2f2_dJkjKx3Yo3ReK9uEOnB_MXcgfpDSRddIhqGyIVwYSjzPlAuSZL1_rO5MfgRnYAQ5V6tuiWS0K2unNE7PYJCvKJ02_q22V7wjGaKEXZ0lP4_uY_KyJbY2iCO7i_aw9F3mAgw0FSB_hGW9tXMU1GmNdeHuopP4A9TZCHXHa7do3lZnpOKYVwoFuqqBVNDc_ioYx2VmXgy7yXkNERYJvg0hw2ymFIpU5-qa8iyvURl0jpScnT6uafqo6HAaW_DTLTCAvDuPjqy1sOohnBJ0xw03oSu-o85g7uYjP6Kc7nNnzjyquizfgLFPjp_7yggpLh8rd6eLozXV-qrCbqXV2yuAx3WmQhoOejeK0z8wiY_V2hAksROXjPRwvzU_kcbz9p5XWGSXQPlPj1BynbPqwEno0Rx1wOBAUklLaMTn8FyRKlFZKX8qukxT0a3F41xtbPy37zy-Y4r0cPOs-u8JXYRCYkwioO1mWwB3rcEFH87p5mIxt0rwmSDXHJ9TYMeTprM_yCQ6zCWcN1OyFh-sfKG3YuvopELxWJA1WJDRFpe8ySgJUa3AEk1_u7mcTLC8hZZXHawhKZQjk3UIp0-ppbGdsiSDS6_Rv8cee5ChTcIYtmoJWBii5y4akMPnNBWoLTJMnzyXUqt1PX6drYFC6bVgn_HV0PZqWf2Z92oq4LQy9iXAR0_yOTHZoS79dHgY4n3yjhxJkjzM4aUex9zU7E89MVcz3Q_P3hXCd0hv_0xVmc54ZBwgsftswkOiNfh-o1oNxUnoJixSiuoWmL8ECIiKPCvTYa1CQH5N5QML2jUBfyUTLjk7AbKyteLdNDsW1O7Cq6k5MORovLxPkTRXhnjj6-kRxBN16Uzx_izfJdN2p6SvMxmhEMfNXMLuaVRGlnhALw_FjSLvkTgDVGR9Gxsd2L6R14NfIo_jczOetc3c0ep6eltxjZR893Cv2OeHc_vA6gqq_CPU1OeYi-c_GrNRykXb8aMzdgQk2O-v98gw8lYQnu_rpilm00]--></g></svg>